<svg width="32" height="32" viewBox="0 0 32 32" fill="none" xmlns="http://www.w3.org/2000/svg">
<path d="M16 32C13.7867 32 11.7067 31.58 9.76 30.74C7.81333 29.9 6.12 28.76 4.68 27.32C3.24 25.88 2.1 24.1867 1.26 22.24C0.42 20.2933 0 18.2133 0 16C0 13.7867 0.42 11.7067 1.26 9.76C2.1 7.81333 3.24 6.12 4.68 4.68C6.12 3.24 7.81333 2.1 9.76 1.26C11.7067 0.42 13.7867 0 16 0C18.2133 0 20.2933 0.42 22.24 1.26C24.1867 2.1 25.88 3.24 27.32 4.68C28.76 6.12 29.9 7.81333 30.74 9.76C31.58 11.7067 32 13.7867 32 16C32 18.2133 31.58 20.2933 30.74 22.24C29.9 24.1867 28.76 25.88 27.32 27.32C25.88 28.76 24.1867 29.9 22.24 30.74C20.2933 31.58 18.2133 32 16 32ZM16 28.8C19.5733 28.8 22.6 27.56 25.08 25.08C27.56 22.6 28.8 19.5733 28.8 16C28.8 15.8133 28.7933 15.62 28.78 15.42C28.7667 15.22 28.76 15.0533 28.76 14.92C28.6267 15.6933 28.2667 16.3333 27.68 16.84C27.0933 17.3467 26.4 17.6 25.6 17.6H22.4C21.52 17.6 20.7667 17.2867 20.14 16.66C19.5133 16.0333 19.2 15.28 19.2 14.4V12.8H12.8V9.6C12.8 8.72 13.1133 7.96667 13.74 7.34C14.3667 6.71333 15.12 6.4 16 6.4H17.6C17.6 5.78667 17.7667 5.24667 18.1 4.78C18.4333 4.31333 18.84 3.93333 19.32 3.64C18.7867 3.50667 18.2467 3.4 17.7 3.32C17.1533 3.24 16.5867 3.2 16 3.2C12.4267 3.2 9.4 4.44 6.92 6.92C4.44 9.4 3.2 12.4267 3.2 16H11.2C12.96 16 14.4667 16.6267 15.72 17.88C16.9733 19.1333 17.6 20.64 17.6 22.4V24H12.8V28.4C13.3333 28.5333 13.86 28.6333 14.38 28.7C14.9 28.7667 15.44 28.8 16 28.8Z" fill="url(#paint0_radial_22_3)"/>
<defs>
<radialGradient id="paint0_radial_22_3" cx="0" cy="0" r="1" gradientUnits="userSpaceOnUse" gradientTransform="translate(16) rotate(90) scale(32 48.0078)">
<stop stop-color="#66CCFF"/>
<stop offset="0.5" stop-color="#66CCFF"/>
<stop offset="1" stop-color="#FFCC33"/>
</radialGradient>
</defs>
</svg>
